<svg xmlns="http://www.w3.org/2000/svg" viewBox="0 0 400 400"><defs><style>.cls-1{fill:none;}.cls-2{fill:black;}.cls-3{fill:silver;}.cls-4{fill:silver;}</style></defs><title>andrew</title><g id="Layer_2" data-name="Layer 2"><g id="andrew"><rect class="cls-1" width="400" height="400"/><path class="cls-2" d="M371.08,160.92a10,10,0,0,0,8.75-9.32q.17-3.28.17-6.6t-.17-6.6a10,10,0,0,0-8.75-9.32l-5.13-.64a10,10,0,0,1-8.5-7.69c-.48-2-1-4-1.6-6a10,10,0,0,1,3.52-10.9l4.12-3.11A10,10,0,0,0,366.4,88.3q-1.48-2.92-3.15-5.8c-1.1-1.92-2.25-3.79-3.45-5.63a10,10,0,0,0-12.23-3.69L336.18,78l.29.37a105.37,105.37,0,0,0-14.82-14.82l.37.29,4.8-11.39a10,10,0,0,0-3.69-12.23c-1.84-1.2-3.71-2.35-5.63-3.45s-3.85-2.16-5.8-3.15a10,10,0,0,0-12.45,2.91l-3.11,4.12a10,10,0,0,1-10.9,3.52c-2-.59-4-1.12-6-1.6a10,10,0,0,1-7.69-8.5l-.64-5.13a10,10,0,0,0-9.32-8.75Q258.32,20,255,20t-6.6.17a10,10,0,0,0-9.32,8.75l-.64,5.13a10,10,0,0,1-7.69,8.5c-2,.48-4,1-6,1.6a10,10,0,0,1-10.9-3.52l-3.11-4.12A10,10,0,0,0,198.3,33.6q-2.93,1.49-5.8,3.15c-1.92,1.1-3.79,2.25-5.63,3.45a10,10,0,0,0-3.69,12.23L188,63.82l.37-.29a105.37,105.37,0,0,0-14.82,14.82l.29-.37-11.39-4.8a10,10,0,0,0-12.23,3.69c-1.2,1.84-2.35,3.71-3.45,5.63s-2.16,3.85-3.15,5.8a10,10,0,0,0,2.91,12.45l4.12,3.11a10,10,0,0,1,3.52,10.9c-.59,2-1.12,4-1.6,6a10,10,0,0,1-8.5,7.69l-5.13.64a10,10,0,0,0-8.75,9.32q-.16,3.28-.17,6.6t.17,6.6a10,10,0,0,0,8.75,9.32l5.13.64a10,10,0,0,1,8.5,7.69c.48,2,1,4,1.6,6a10,10,0,0,1-3.52,10.9l-4.12,3.11a10,10,0,0,0-2.91,12.45q1.49,2.93,3.15,5.8c1.1,1.92,2.25,3.79,3.45,5.63a10,10,0,0,0,12.23,3.69l11.39-4.8-.29-.37a105.44,105.44,0,0,0,14.82,14.83l-.37-.3-4.8,11.39a10,10,0,0,0,3.69,12.23c1.84,1.2,3.71,2.35,5.63,3.45s3.85,2.16,5.8,3.15a10,10,0,0,0,12.45-2.91l3.11-4.12a10,10,0,0,1,10.9-3.52c2,.59,4,1.12,6,1.6a10,10,0,0,1,7.69,8.5l.64,5.13a10,10,0,0,0,9.32,8.75q3.28.17,6.6.17t6.6-.17a10,10,0,0,0,9.32-8.75l.64-5.13a10,10,0,0,1,7.69-8.5c2-.48,4-1,6-1.6a10,10,0,0,1,10.9,3.52l3.11,4.12a10,10,0,0,0,12.45,2.91q2.93-1.48,5.8-3.15c1.92-1.1,3.79-2.25,5.63-3.45a10,10,0,0,0,3.69-12.23L322,226.18l-.37.3a105.44,105.44,0,0,0,14.82-14.83l-.29.37,11.39,4.8a10,10,0,0,0,12.23-3.69c1.2-1.84,2.35-3.71,3.45-5.63s2.16-3.85,3.15-5.8a10,10,0,0,0-2.91-12.45l-4.12-3.11a10,10,0,0,1-3.52-10.9c.59-2,1.12-4,1.6-6a10,10,0,0,1,8.5-7.69ZM255,224A78.95,78.95,0,1,1,334,145,79,79,0,0,1,255,224Z"/><path class="cls-2" d="M181.92,297.45a72.74,72.74,0,0,0,0-14.9c0,.19.05.38.06.57l6.05-2.46a9.14,9.14,0,0,0,5.5-10.56c-.19-.77-.38-1.55-.59-2.32s-.43-1.55-.66-2.31a9.13,9.13,0,0,0-10-6.4h0a9.11,9.11,0,0,1-9.2-4.48,72.08,72.08,0,0,0-4.38-6.85l.23.31,4-5.15a9.15,9.15,0,0,0-.52-11.89c-.55-.58-1.11-1.16-1.67-1.73L169,227.61a9.15,9.15,0,0,0-11.89-.52l-5.15,4,.31.23a72.08,72.08,0,0,0-6.85-4.38,9.11,9.11,0,0,1-4.48-9.2h0a9.13,9.13,0,0,0-6.4-10q-1.14-.34-2.31-.66c-.77-.21-1.55-.4-2.32-.59a9.14,9.14,0,0,0-10.56,5.5L116.88,218c.19,0,.38,0,.56.06a72.55,72.55,0,0,0-14.88,0c.18,0,.37-.05.56-.06L100.66,212a9.14,9.14,0,0,0-10.56-5.5c-.77.19-1.55.38-2.32.59s-1.55.43-2.31.66a9.13,9.13,0,0,0-6.4,10h0a9.11,9.11,0,0,1-4.48,9.2,72.08,72.08,0,0,0-6.85,4.38l.31-.23-5.15-4a9.15,9.15,0,0,0-11.89.52l-1.73,1.67c-.56.57-1.12,1.15-1.67,1.73a9.15,9.15,0,0,0-.52,11.89l4,5.15.23-.31A72.08,72.08,0,0,0,47,254.59a9.11,9.11,0,0,1-9.2,4.48h0a9.13,9.13,0,0,0-10,6.4q-.34,1.14-.66,2.31c-.21.77-.4,1.55-.59,2.32A9.14,9.14,0,0,0,32,280.66L38,283.12c0-.19,0-.38.06-.57a72.74,72.74,0,0,0,0,14.9c0-.19,0-.38-.06-.57L32,299.34a9.14,9.14,0,0,0-5.5,10.56c.19.77.38,1.55.59,2.32s.43,1.55.66,2.31a9.13,9.13,0,0,0,10,6.4h0a9.11,9.11,0,0,1,9.2,4.48,72.08,72.08,0,0,0,4.38,6.85L51.1,332l-4,5.15A9.15,9.15,0,0,0,47.61,349c.55.58,1.11,1.16,1.67,1.73L51,352.39a9.15,9.15,0,0,0,11.89.52l5.15-4-.31-.23a72.08,72.08,0,0,0,6.85,4.38,9.11,9.11,0,0,1,4.48,9.2h0a9.13,9.13,0,0,0,6.4,10q1.14.35,2.31.66c.77.21,1.55.4,2.32.59a9.14,9.14,0,0,0,10.56-5.5l2.46-6-.57-.06a72.74,72.74,0,0,0,14.9,0l-.57.06,2.46,6a9.14,9.14,0,0,0,10.56,5.5c.77-.19,1.55-.38,2.32-.59s1.55-.43,2.31-.66a9.13,9.13,0,0,0,6.4-10h0a9.11,9.11,0,0,1,4.48-9.2,72.08,72.08,0,0,0,6.85-4.38l-.31.23,5.15,4a9.15,9.15,0,0,0,11.89-.52l1.73-1.67c.56-.57,1.12-1.15,1.67-1.73a9.15,9.15,0,0,0,.52-11.89l-4-5.15-.23.31a72.08,72.08,0,0,0,4.38-6.85,9.11,9.11,0,0,1,9.2-4.48h0a9.13,9.13,0,0,0,10-6.4q.34-1.14.66-2.31c.21-.77.4-1.55.59-2.32a9.14,9.14,0,0,0-5.5-10.56L182,296.88C182,297.07,181.94,297.26,181.92,297.45Zm-33.57,30.9a54.24,54.24,0,1,1,0-76.7A54.25,54.25,0,0,1,148.35,328.35Z"/><circle class="cls-3" cx="255" cy="145" r="35"/><circle class="cls-4" cx="110" cy="290" r="25"/></g></g></svg>